<svg width="2523" height="931" viewBox="0 0 2523 931" fill="none" xmlns="http://www.w3.org/2000/svg">
<rect width="2523" height="931" rx="100" fill="#750463"/>
<path d="M993.5 391H1059.8L958.4 285.1L1047.8 196H981.5L903.8 273.7V196H857V391H903.8V340L925.1 318.4L993.5 391ZM1279.82 196H1218.32L1178.12 244.9L1137.62 196H1076.12L1154.42 290.2V391H1201.22V290.2L1279.82 196ZM1395.99 197.2H1322.49H1321.89V392.2H1324.29H1395.99C1449.69 392.2 1493.49 348.4 1493.49 294.7C1493.49 240.7 1449.69 197.2 1395.99 197.2ZM1433.19 331.9C1423.29 341.8 1410.09 347.2 1395.99 347.2H1368.69V241.9H1395.69C1409.79 241.9 1423.29 247.3 1433.19 257.2C1443.09 267.4 1448.49 280.6 1448.49 294.7C1448.49 308.8 1443.09 322 1433.19 331.9ZM1693.44 196H1631.94L1591.74 244.9L1551.24 196H1489.74L1568.04 290.2V391H1614.84V290.2L1693.44 196ZM1863.02 196V295.6L1733.72 196V391H1780.52V295.9L1909.82 391V196H1863.02ZM2045.95 196.9C1990.45 196.9 1945.45 241.9 1945.45 297.4C1945.45 352.9 1990.45 397.9 2045.95 397.9C2101.45 397.9 2146.45 352.9 2146.45 297.4C2146.45 241.9 2101.45 196.9 2045.95 196.9ZM2087.35 338.8C2076.25 349.6 2061.55 355.9 2045.95 355.9C2030.35 355.9 2015.65 349.6 2004.55 338.8C1993.45 327.7 1987.45 313 1987.45 297.4C1987.45 281.8 1993.45 267.1 2004.55 256C2015.65 244.9 2030.35 238.9 2045.95 238.9C2061.55 238.9 2076.25 244.9 2087.35 256C2098.45 267.1 2104.45 281.8 2104.45 297.4C2104.45 313 2098.45 327.7 2087.35 338.8ZM2255.32 390.7L2360.02 196H2306.02L2255.32 293.2L2204.32 196H2150.32L2255.02 390.7V391L2255.32 390.7V391V390.7ZM1006.7 691H1060.7L956 496L851 691H905L919.1 663.7H992.6L1006.7 691ZM938 627.1L956 592.9L973.7 627.1H938ZM1193.25 636.4C1183.35 643.9 1171.05 648.1 1158.15 648.1C1142.55 648.1 1128.15 642.1 1117.05 631C1105.95 619.9 1099.95 605.5 1099.95 589.9C1099.95 574.3 1105.95 559.6 1117.05 548.5C1128.15 537.4 1142.55 531.4 1158.15 531.4C1171.05 531.4 1183.35 535.6 1193.25 543.1L1223.25 513.4C1205.55 498.4 1183.05 489.4 1158.15 489.4C1102.95 489.4 1057.95 534.4 1057.95 589.9C1057.95 645.1 1102.95 690.1 1158.15 690.1C1183.05 690.1 1205.55 681.1 1223.25 666.4L1193.25 636.4ZM1402.75 691H1456.75L1352.05 496L1247.05 691H1301.05L1315.15 663.7H1388.65L1402.75 691ZM1334.05 627.1L1352.05 592.9L1369.75 627.1H1334.05ZM1557.98 497.2H1484.48H1483.88V692.2H1486.28H1557.98C1611.68 692.2 1655.48 648.4 1655.48 594.7C1655.48 540.7 1611.68 497.2 1557.98 497.2ZM1595.18 631.9C1585.28 641.8 1572.08 647.2 1557.98 647.2H1530.68V541.9H1557.68C1571.78 541.9 1585.28 547.3 1595.18 557.2C1605.08 567.4 1610.48 580.6 1610.48 594.7C1610.48 608.8 1605.08 622 1595.18 631.9ZM1744.23 614.5H1820.13V572.5H1744.23V538H1833.63V496H1697.43V691H1833.63V649H1744.23V614.5ZM1979.04 562.9L1875.54 496V691H1922.34V582.1L1978.44 618.7L2036.34 581.8V691H2083.14V496L1979.04 562.9ZM2328.82 496H2267.32L2227.12 544.9L2186.62 496H2125.12L2203.42 590.2V691H2250.22V590.2L2328.82 496Z" fill="white"/>
<path d="M140 622.259V166H226.504V348.783L409.279 166H534.849L333.936 366.921L573.915 606.911V375.293L487.411 461.801L423.231 397.618L654.838 166H666V699H537.639L395.326 556.681L254.408 697.605H140V680.861L328.355 492.497L266.966 431.105L226.504 471.568V535.751L140 622.259Z" fill="white"/>
</svg>
